<?xml version="1.0" standalone="no"?>
<!DOCTYPE svg PUBLIC "-//W3C//DTD SVG 20010904//EN"
 "http://www.w3.org/TR/2001/REC-SVG-20010904/DTD/svg10.dtd">
<svg version="1.0" xmlns="http://www.w3.org/2000/svg"
 width="1672.000000pt" height="1311.000000pt" viewBox="0 0 1672.000000 1311.000000"
 preserveAspectRatio="xMidYMid meet">

<g transform="translate(0.000000,1311.000000) scale(0.100000,-0.100000)"
fill="#000000" stroke="none">
<path d="M13280 12724 c-36 -2 -157 -8 -270 -14 -700 -37 -1495 -138 -2400
-306 -1648 -306 -3232 -770 -4833 -1418 -1605 -649 -3229 -1497 -4821 -2517
-36 -23 -57 -58 -218 -365 -97 -186 -173 -340 -169 -342 22 -7 1754 187 2334
262 54 7 96 10 95 7 -2 -4 -35 -69 -74 -146 -94 -184 -333 -741 -322 -750 2
-1 237 56 523 126 621 154 1004 243 1011 237 2 -3 -16 -49 -41 -103 -63 -136
-145 -344 -209 -534 -30 -89 -54 -161 -53 -161 1 0 765 196 1697 434 932 239
1696 434 1697 433 0 -1 -84 -430 -189 -952 l-190 -950 -381 -77 -381 -77 -208
-208 -208 -208 -483 -2345 c-404 -1963 -480 -2345 -467 -2348 13 -2 6146 1036
6216 1053 18 4 26 22 49 117 15 62 29 115 31 117 1 1 38 -9 81 -23 249 -82
455 -110 808 -110 349 -1 613 30 1003 115 1096 240 1881 734 2429 1529 44 63
121 171 171 240 241 329 453 758 605 1225 106 325 154 525 257 1070 l63 330
-135 195 c-74 107 -350 517 -612 911 l-477 715 61 90 c159 232 291 522 361
796 33 132 317 1537 334 1659 23 158 30 419 16 564 -59 605 -340 1079 -828
1399 -134 88 -322 177 -489 232 -229 75 -406 94 -949 98 -203 2 -399 2 -435 0z
m765 -584 c270 -24 458 -71 639 -162 541 -270 789 -801 691 -1478 -20 -134
-299 -1504 -331 -1619 -114 -420 -375 -792 -750 -1072 -68 -51 -123 -95 -122
-98 2 -3 24 -49 50 -101 87 -174 118 -325 118 -575 0 -173 -16 -311 -60 -529
-16 -82 -30 -153 -30 -158 0 -37 224 176 510 485 140 151 255 274 256 274 1
-1 178 -267 394 -590 l392 -589 -42 -221 c-156 -824 -354 -1359 -682 -1849
-402 -602 -1056 -1024 -1913 -1237 -792 -197 -1420 -188 -1851 25 -160 80
-329 223 -418 355 -19 28 -36 47 -39 42 -2 -4 -39 -183 -82 -398 -43 -214 -80
-392 -81 -393 -3 -5 -4998 -891 -5001 -888 -3 2 727 3600 730 3602 1 1 195 36
431 77 236 42 430 78 433 80 7 7 665 3258 660 3263 -14 14 -624 -137 -1266
-312 -391 -107 -1269 -356 -1770 -503 -151 -45 -276 -79 -278 -78 -5 5 132
242 204 352 73 111 162 232 235 316 26 31 48 59 48 62 0 10 -488 -104 -1078
-253 -261 -66 -476 -120 -478 -120 -16 0 538 708 640 818 l58 62 -33 1 c-137
6 -316 -11 -964 -92 -887 -111 -1369 -169 -1372 -165 -6 6 275 185 552 351
1242 745 2743 1444 4220 1965 1485 524 2905 878 4430 1104 165 25 419 65 565
90 326 55 581 89 895 121 207 21 338 30 685 49 120 7 684 -3 805 -14z"/>
<path d="M13510 11624 c-356 -16 -554 -27 -720 -40 -2613 -198 -5434 -941
-7985 -2102 -262 -119 -458 -214 -430 -207 124 28 1079 189 1385 234 347 51
700 86 700 71 0 -13 -118 -79 -395 -222 -406 -210 -592 -324 -783 -477 -104
-85 -179 -158 -149 -148 155 55 960 259 1273 322 197 40 523 89 531 81 2 -2
-79 -54 -179 -116 -220 -137 -424 -272 -533 -354 -71 -53 -285 -226 -285 -230
0 -1 147 40 327 92 841 240 1620 438 2178 553 260 54 598 112 621 107 8 -2
-111 -80 -264 -175 l-278 -172 -404 -2066 c-223 -1137 -408 -2071 -411 -2077
-4 -6 -197 -44 -430 -85 -233 -41 -427 -78 -431 -82 -4 -3 -124 -579 -266
-1279 l-258 -1273 25 6 c14 2 892 158 1951 345 1059 188 1936 344 1949 349 24
7 31 38 283 1276 142 698 256 1271 253 1273 -3 3 -170 -24 -372 -60 -203 -36
-369 -65 -370 -64 -3 2 285 1417 289 1421 3 3 417 77 578 104 222 36 456 34
576 -5 105 -34 180 -117 203 -226 16 -71 13 -210 -5 -319 -21 -120 -109 -478
-229 -924 -284 -1056 -327 -1315 -270 -1596 54 -261 220 -438 491 -522 242
-76 613 -77 1042 -2 585 102 1068 293 1442 571 131 97 343 308 439 437 243
325 428 738 561 1250 41 157 110 482 110 518 0 15 -278 448 -311 483 -5 6 -63
-43 -141 -120 -147 -143 -243 -224 -360 -303 -153 -103 -335 -171 -454 -171
-114 0 -251 69 -302 152 -43 70 -40 113 36 488 90 439 102 525 102 701 0 221
-36 346 -126 435 -78 79 -189 116 -394 135 -155 14 -385 1 -649 -37 -95 -13
-175 -23 -177 -21 -2 2 33 14 79 27 162 46 578 191 734 256 307 128 577 279
755 423 224 181 406 446 488 711 37 118 324 1527 341 1670 49 425 -96 727
-426 890 -176 86 -203 91 -565 94 -173 2 -349 2 -390 0z m-1466 -2406 c22 -5
54 -24 72 -42 70 -70 72 -179 8 -499 -75 -386 -107 -483 -199 -604 -130 -173
-345 -250 -1059 -379 -165 -29 -302 -52 -304 -49 -4 3 231 1177 275 1375 l14
66 297 52 c548 96 760 115 896 80z"/>
<path d="M4700 6364 c-179 -78 -178 -343 2 -418 50 -21 134 -20 183 3 138 64
172 251 66 364 -59 64 -169 87 -251 51z m168 -35 c128 -62 140 -257 20 -336
-58 -39 -138 -39 -196 -1 -117 78 -106 274 20 337 55 27 100 27 156 0z"/>
<path d="M4710 6150 c0 -123 1 -130 20 -130 18 0 20 7 20 55 0 54 0 55 29 55
34 0 42 -9 56 -65 8 -31 15 -41 33 -43 19 -3 23 0 18 15 -3 10 -8 32 -12 48
-4 17 -14 38 -22 48 -14 16 -14 19 6 33 28 19 29 67 2 94 -16 16 -33 20 -85
20 l-65 0 0 -130z m114 84 c31 -31 14 -59 -42 -70 l-32 -6 0 46 c0 44 1 46 29
46 16 0 37 -7 45 -16z"/>
</g>
</svg>
